# xmcd
# Track frame offsets:
# 150
# 19042
# 34372
# 51527
#
# Disc length: 909 seconds
# Revision: 0
# Processed by: cddbd v1.4PL0 Copyright (c) Steve Scherf et al.
# Submitted via: VisiTrax 2.9.3.171 - For more info visit www.synapsa.com
#
DISCID=32038b04
DTITLE=Dan Brodie and The Broken Arrows - I love you baby
DYEAR=2000
DGENRE=Country-Rock
TTITLE0=I Love You Baby (album version)
TTITLE1=Annabel
TTITLE2=You make me wanna kill (live triple j recording)
TTITLE3=I love you baby (radio edit)
EXTD=
EXTT0=
EXTT1=
EXTT2=
EXTT3=
PLAYORDER=
